<?xml version="1.0" standalone="no"?>
<!DOCTYPE svg PUBLIC "-//W3C//DTD SVG 20010904//EN"
 "http://www.w3.org/TR/2001/REC-SVG-20010904/DTD/svg10.dtd">
<svg version="1.0" xmlns="http://www.w3.org/2000/svg"
 width="474.000000pt" height="474.000000pt" viewBox="0 0 474.000000 474.000000"
 preserveAspectRatio="xMidYMid meet">
<metadata>
Created by potrace 1.14, written by Peter Selinger 2001-2017
</metadata>
<g transform="translate(0.000000,474.000000) scale(0.100000,-0.100000)"
fill="#000000" stroke="none">
<path d="M731 3486 c-15 -25 -39 -77 -51 -116 -20 -61 -22 -85 -18 -197 6
-175 30 -220 139 -268 24 -10 46 -20 47 -21 2 -2 -8 -32 -22 -68 -31 -76 -35
-178 -11 -271 9 -33 63 -155 121 -271 89 -178 106 -220 111 -270 3 -41 1 -64
-9 -76 -10 -12 -69 -26 -231 -52 -121 -19 -220 -36 -222 -38 -8 -7 -77 -520
-71 -525 7 -7 887 138 986 163 107 27 219 84 269 138 77 85 127 228 146 421
12 120 37 272 61 367 21 86 45 151 160 449 38 98 58 206 49 262 -6 35 -58 116
-94 145 -28 22 -144 79 -216 105 -164 59 -196 81 -192 132 3 44 -32 46 -68 3
-71 -83 -112 -226 -100 -348 18 -187 51 -223 276 -299 86 -29 169 -63 185 -76
l29 -23 -52 -104 c-29 -56 -83 -188 -122 -291 -103 -278 -134 -317 -281 -356
-72 -19 -408 -66 -416 -58 -3 2 5 24 16 48 14 31 20 66 20 117 0 91 -31 175
-119 320 -122 201 -158 306 -131 386 13 40 13 40 96 25 118 -21 131 -26 138
-59 4 -22 11 -30 26 -30 17 0 29 16 54 73 61 132 79 262 52 367 -29 111 -65
136 -286 200 -187 54 -201 61 -198 103 3 26 -1 33 -19 35 -17 3 -29 -7 -52
-42z"/>
<path d="M2801 2451 l-363 -970 -114 -26 -114 -27 0 -64 0 -64 370 0 370 0 0
64 0 64 -97 17 c-132 23 -173 32 -181 40 -7 6 11 62 95 293 l45 122 437 0 436
0 69 -206 c37 -113 66 -208 63 -210 -2 -3 -66 -17 -141 -31 l-136 -26 0 -63 0
-64 395 0 395 0 0 63 0 64 -107 23 c-60 13 -114 29 -122 36 -7 7 -165 443
-351 971 l-337 958 -125 3 -124 3 -363 -970z m651 187 c97 -304 176 -554 174
-555 -2 -2 -172 -2 -378 -1 l-375 3 196 552 c108 304 198 553 201 553 3 0 85
-249 182 -552z"/>
</g>
</svg>
